<svg xmlns="http://www.w3.org/2000/svg" version="1.1" xmlns:xlink="http://www.w3.org/1999/xlink" xmlns:svgjs="http://svgjs.dev/svgjs" width="2000" height="2250" viewBox="0 0 2000 2250"><g transform="matrix(1,0,0,1,0,0)"><svg viewBox="0 0 320 360" data-background-color="#000000" preserveAspectRatio="xMidYMid meet" height="2250" width="2000" xmlns="http://www.w3.org/2000/svg" xmlns:xlink="http://www.w3.org/1999/xlink"><g id="tight-bounds" transform="matrix(1,0,0,1,0,0)"><svg viewBox="0 0 320 360" height="360" width="320"><rect width="320" height="360" fill="url(#ff3a88b0-6834-4545-b4ac-1ba09ac1b388)" mask="url(#9d16a4a9-876f-4e56-9b02-e32c147a07f3)" data-fill-palette-color="tertiary"></rect><g><svg></svg></g><g><svg viewBox="0 0 320 360" height="360" width="320"><g><path d="M165.217 303.356c-1.404-1.755-2.809-0.702-2.808-1.755-8.426 2.106-24.223-3.511-30.894-2.809 1.404-2.106-2.106-1.755-2.106-3.159-1.404 2.106-2.809 0-4.915 0.702-2.106-5.266-10.532-1.404-11.585-8.075-4.915 0-6.67-2.809-11.586-5.617 0.351-0.351 0.702-0.351 1.054-0.702-2.457-0.351-2.457-1.755-4.564-1.755l0.702-1.405c-3.862-0.702-5.266-6.67-10.883-8.776-1.755-0.351-5.617-6.319-7.723-7.724-1.053-0.702-2.809-0.702-0.352-1.053-0.351-0.351-0.351-1.053 0-1.404-2.457-0.702-2.809-2.809-5.968-3.862-0.351-1.053 0.702-1.755 0-2.457-0.702-0.351-1.755 0.351-2.457 0-0.351 6.319 6.67 7.021 8.777 12.287-0.702-0.702-1.755-2.809-2.458-1.404-0.351 1.053 2.809 4.915 2.809 2.808-1.053 0.702-1.404-1.053-0.703-1.404 1.053 1.755 3.16 1.404 3.16 2.809-1.053 1.053-2.457-1.053-2.106 0.702 3.16 1.755 2.809 3.511 4.563 5.968-1.404-1.755-1.755 1.404-3.159 0-0.351-5.266-6.319-4.213-6.319-9.479-0.702-1.755-1.404-0.351-2.458-1.053 1.404-1.404-4.213-6.319-4.213-4.564-1.755-2.106-0.702-2.809-1.053-4.213-1.404-0.351-0.351 1.404-1.404 0.351 1.404-2.457-1.755-5.617-3.862-8.074l1.405-0.702c-2.457-1.404-2.809-4.213-4.564-7.373-2.106 3.16 4.213 10.181 3.159 11.585 0 0.351 2.457 3.16 3.16 4.564 2.809 4.915 4.915 10.883 8.777 13.692-0.702-0.351-0.351-2.457 0.702-1.404 0 1.053-0.702 2.106-0.702 3.159 2.106 2.106 3.862 3.862 5.968 5.968-4.564-2.809-9.128-5.617-12.288-9.83 1.755-0.351 3.511 2.809 4.915 2.458-3.511-2.809-2.457-3.862-3.861-7.372-1.404-1.053 0.351 1.404-1.054 1.755-4.564-4.213-8.075-6.67-10.181-10.532 0.351-0.351 0.702-0.702 0.703-1.404-0.351-0.351-0.351-0.351-0.703-0.702 2.106 2.106 2.809 3.862 5.266 4.212-1.053-1.053 0-1.404-1.404-2.457-0.702-1.404-1.755 0.702-2.457-0.351 0.702-1.053 0-2.457 0-3.511-0.702 0-1.404 0-1.756-1.053-0.702-0.351-1.053 0-1.404 0.702-0.351-0.351-0.351-1.053-0.702-1.404v-0.351c-0.351-0.351-0.702-1.053-1.053-1.405-2.809-7.372-4.564-17.202-8.426-23.521 1.053-4.213-0.702-12.638-1.755-14.745 1.053-1.755 0.351-9.83-0.351-11.234-1.755 0.702 0.351 4.564-1.404 5.617-1.755-7.723 1.053-16.5 0.351-23.521 0.702 0 1.404 0 1.404-0.351-1.053-1.053 0.702-3.16 0.351-5.617 1.404-3.16-3.16 4.564-3.16 7.723-0.351 0.702-1.755 0-1.404 1.756 0 2.457 0.702 7.372-0.702 10.883-0.702 0-0.702-0.702-1.404-0.351-0.351 1.755-0.702 3.862-1.053 5.617-0.351-0.702-0.702-1.755-0.703-2.107-1.755-8.777 0-18.958-0.702-26.33 1.404 0 1.404-2.106 2.458-2.808-0.351 2.809-1.053 6.319 0.702 7.021 1.404-13.692 4.213-28.787 10.532-43.532 4.564-10.883 11.234-21.766 19.308-30.543 0.702 1.053-0.351 3.511 0 4.564 7.021-7.372 11.585-16.149 19.309-21.064 0.351 1.755-3.16 3.16-3.16 4.564 3.16-3.16 4.213-2.106 7.724-3.159 1.053-1.404-1.404 0-1.756-1.405 2.106-1.404 3.511-3.16 4.915-4.212 0 0.351-0.351 0.351-0.351 0.702 3.862-1.053 4.213-3.16 7.022-3.862-0.351-0.351-1.053-0.702-2.107-0.351 0.702-0.351 1.755-1.053 2.809-1.404-0.351 0-0.351 0.351-0.702 0.351 2.106-1.053 0.351 0.351 0.351 1.053 0.351 0 0.702-0.351 0.702-0.351-2.106 1.404-3.511 2.106-4.213 4.564 1.053-0.702 1.404 0 2.809-1.054 1.404-0.702-0.351-1.755 0.702-2.457 1.053 0.702 2.457 0.351 3.51 0.351 0-0.702 0.351-1.404 1.054-1.755 0.351-0.702 0-1.053-0.352-1.053 0.351-0.351 0.702-0.351 1.405-0.703 0 0 0.351 0 0.351 0.351 5.968-2.809 12.638-5.266 18.957-7.372 3.862-0.351 8.777-0.351 10.883-2.808-0.702 0-1.404 0.351-1.755 0 0.351 0 1.053-0.351 1.404-0.351 0.702 0.702 1.755 0 0.702 1.404 0.351 0 0.351 0 0.703-0.351 0 0.351 0 0.351 0.351 0.702 0.351 0 0.702-0.351 1.053-1.053 0.351 0 0.702 0 1.053-0.351l-0.351 0.351c2.809-0.702 5.266-0.351 9.128-1.054 0-0.351 0-0.702 0-1.053 0.702 0 1.053-0.351 1.755-0.351v0.351c1.404-0.702 2.809 0.702 2.808 0 0.351 0 0.351 0 0.703 0 0 0.702-0.351 1.053-0.351 1.405 1.755 0 2.809 0 3.51-1.054-0.351-0.351-0.702-0.351-1.053-0.351 0.702 0 1.404-0.351 2.106-0.702 1.053 0.351 1.404 0.702 1.405 2.107 1.755-3.16 7.372 0.702 9.829 0 1.053 0 0.702-1.404 1.405-2.107 0.351 0 0.702 0 1.053 0 1.755 1.404 4.213 2.809 7.372 3.16-2.809-0.702 0.351-1.053 0.702-1.405-0.702 0-0.702-0.351-0.702-0.702 1.053 0 2.106 0.351 3.16 0.351 0 0.702 0.351 1.053 1.053 1.054 0.702 0 0.702-0.351 0.702-1.054 1.053 0 1.755 0 2.809 0.351-0.351 1.404 1.755 1.755 2.457 2.809-2.809-0.702-5.968-1.755-7.021 0 11.234 2.457 23.521 5.968 35.457 11.936 0 0 0 0 0 0.351h0.352c2.106 1.053 4.213 2.106 6.319 3.16 1.404 0.702 2.457 1.404 3.861 2.457 0 0.351 0 0.702 0.703 0.702h0.351c1.404 1.053 2.809 1.755 4.212 2.809 1.404 2.106 2.809 4.915 5.266 4.213 5.266 8.075 10.883 11.234 15.447 19.659 0.351-1.404 1.404 3.16 3.16 3.511-2.809-0.351 1.755 1.755-1.053 1.404 2.457 2.457 3.16 3.511 3.51 6.319-0.702-1.404-1.053-1.755-1.404-0.351-0.351 2.106 2.457-0.351 3.511 1.756-2.106 0-1.404 1.404-1.054 3.159 1.053-1.053 0.702-2.106 1.756-1.755 1.404 1.404-0.702 1.755-0.351 2.809 1.053-1.404 1.404-0.702 2.808 0-1.755 0.351 1.053 2.809-1.053 1.755 1.404 1.755 1.755 2.809 1.053 4.564-1.404-2.106-0.351-3.511-2.457-3.16 4.213 3.511 2.106 11.585 7.021 12.287-3.16 0.702 0 2.106-1.755 2.458 2.106 0.702 1.053 3.511 3.51 4.213-0.351 1.755-1.053 2.809-1.404 4.563 1.053 1.404 1.404 4.213 3.16 4.564-1.053 1.053-0.351 3.862-1.404 4.915 1.404-0.702 2.106-0.702 3.159 0.702-1.755 1.404-0.351 2.809-1.404 3.16 3.16 8.075-0.702 24.575 1.053 30.894-2.106-1.053-1.404 2.457-2.808 2.457 2.457 1.053 0.351 2.809 1.404 4.564-4.915 2.809 0 10.532-6.67 12.287 0.702 4.915-2.106 7.021-4.213 12.288-0.351-0.351-0.351-0.702-0.702-1.054-0.351 2.457-1.755 2.809-1.054 4.915l-1.404-0.702c0 3.862-5.968 5.968-7.372 11.936-0.351 1.755-5.617 6.319-7.022 8.777-0.702 1.053-0.351 2.809-1.053 0.351-0.351 0.351-1.053 0.351-1.404 0.351-0.351 2.457-2.457 3.16-3.16 6.319-0.702 0.351-1.755-0.702-2.457 0.351 0 0.702 0.702 1.755 0.351 2.458 6.319-0.351 6.319-7.723 11.234-10.181-0.351 1.053-2.457 2.106-1.053 2.808 1.053 0 4.213-3.511 2.457-3.159 1.053 0.702-1.053 1.404-1.404 1.053 1.755-1.404 1.053-3.16 2.458-3.511 1.053 0.702-1.053 2.457 1.053 2.107 1.404-3.16 3.16-3.511 5.266-5.266-1.404 1.404 1.755 1.755 0.351 3.159-5.266 1.053-3.511 7.021-8.777 7.724-1.404 1.053-0.351 1.404-0.702 2.457-1.755-1.053-5.617 4.915-4.213 4.564-1.755 1.755-2.809 1.053-4.212 1.404-0.351 1.404 1.404 0.351 0.702 1.405-2.457-1.053-5.617 2.457-7.724 4.915l-1.053-1.054c-1.053 2.809-3.862 3.16-7.021 5.266 3.511 1.755 9.479-5.617 11.234-4.564 0.351 0 3.16-2.809 4.213-3.861 4.564-3.511 10.181-6.319 12.287-10.181-0.351 0.702-2.457 0.702-1.404-0.351 1.053-0.351 2.106 0.351 3.159 0.351 5.617-7.723 12.638-14.043 17.905-23.17 0.351-0.351 0.702-1.053 1.053-1.756-0.702 2.106-1.755 3.862-2.458 5.968-5.617 3.862-7.723 15.096-14.393 16.851 0.351 3.862-3.16 4.915-4.915 9.479-1.053 1.404-1.755-1.053-2.809 0.702 1.053 4.915-8.777 4.564-8.425 9.128-0.702 0.351-1.755 0.702-2.458 1.404h-0.351c-0.351 0.351-0.351 0.351-0.702 0.702-1.755 1.053-3.16 2.106-4.564 3.16-4.915 2.809-11.585 4.915-16.851 7.723v-0.351c-1.404 0.702-3.16 0.351-2.809 1.756-1.053 0.702-2.106 1.404-3.159 2.106-0.351 0-0.351 0-0.702 0 0 0-0.351-0.351-0.702-0.351-0.702 0-0.702 0-1.054 0.351-4.564 0.351-10.532 2.457-12.287 3.862-1.755-1.053-9.83 0.702-11.234 1.404 0.702 1.053 2.809 0 4.564 0-1.053 0.351-2.106 0.702-2.458 1.404-0.351 0-0.351 0-0.702 0-0.351-1.053-1.404 0-1.755-0.351h0.351c-0.351-1.404-1.404-2.106-3.16-1.755 0 0.702 0 1.053-0.351 1.755 0.702 0 2.809-1.053 2.809 0-0.351 0-0.351 0.351 0 0.351-0.702 0.702-1.755 0.702-2.458 1.054-1.404 0-3.16 0-4.563 0-0.351-0.351-0.702-0.351-1.405-0.703-0.351 0.351-1.053 0.351-1.404 0.703-2.106 0-4.564 0.351-6.319 0.702 0-0.702 0-1.404-0.702-1.405-1.053 1.404-3.16-0.351-5.617 0.352-2.457-0.702 1.404 1.053 4.915 1.755-0.351 0.351-0.702 0.702-1.756 1.053M116.068 308.271c-4.915-4.564-15.096-6.67-16.851-10.181-2.809-0.351-7.021-5.617-10.532-6.319 1.755 0 0.351-1.053 0-1.755-0.702 0.702-1.404 1.053-2.106 1.053 0-2.809-2.809-4.564-5.266-6.319 1.755 1.053 3.16 1.755 5.266 2.106 0-0.702 0-1.404 0.702-1.404 2.457 2.457 5.266 4.915 8.425 7.372 4.213 3.862 25.979 13.692 29.841 15.447 0 0-0.702 1.404-0.351 1.404 1.755 1.053 3.16-1.053 3.511 1.404-5.617 0.702-7.723-3.16-12.639-2.808M277.909 226.824v0.351 0c-0.351 0 0-0.351 0-0.351M136.079 64.281c-0.351 0.351-0.702 0.351-0.702 0.351 0-0.351 0.351-0.351 0.702-0.351M129.409 66.036c0 0.351 0 0.351 0 0 0 0.351 0 0.351 0 0 0 0.351 0 0 0 0M106.238 73.408v0c0.351-0.351 0.351-0.351 0.703-0.351-0.351 0-0.702 0.351-0.703 0.351M162.409 61.823c-0.702 0-1.053 0-1.404-0.351 0.351 0 0.702 0 1.053 0h0.351c0 0 0 0 0 0.351M168.728 62.525c-0.351-0.351-1.404-0.702-2.457-0.702 0-0.351 0.351-0.702 0.351-0.702 0.351 0 0.702 0 1.053 0 0 0 0.351 0 0.351 0.351 0 0 0 0 0-0.351 0.351 0 0.351 0 0.702 0 0.351 0.702 0.702 1.053 0 1.404M180.313 63.579c-1.755 0.351-2.809-0.351-4.564-1.405 1.053 0 2.457 0.351 3.511 0.702 0.351 0 0.702 0.351 1.053 0.703M305.292 113.43c-0.702 0.351-1.053 0.351-1.755-1.053-5.617-11.936-15.798-29.138-30.543-43.532-14.394-14.745-33.702-26.681-51.255-33.001 1.053 0.351 2.457 1.053 1.755 1.756-15.447-5.968-30.192-9.479-44.234-10.883-37.915-5.968-77.585 2.106-108.128 21.766 0.351 0.702 0.351 1.053-0.702 1.755-11.234 7.021-27.032 19.309-39.671 35.458-12.638 16.149-22.468 36.511-26.681 54.766 0.351-1.053 0.702-2.809 1.405-2.107-9.128 36.16-6.67 67.053 5.968 93.735 0.702-0.702-1.755-4.213 0.351-3.862 1.404 3.862 3.16 8.075 5.266 11.936 2.457 5.617 5.266 12.989 9.128 14.745-9.83-19.309-16.5-41.426-17.203-61.085 1.404 2.809 1.053 8.777 3.16 11.234 0.702-13.34-2.457-31.245 2.106-43.883-1.053 6.67-1.755 15.798-1.053 24.925 0 6.67 3.16 25.277 5.266 27.032-0.351-0.351-0.351-2.106 0-2.106 1.053 2.106-1.404 3.16 0.351 3.511 0-0.702 0.351-0.702 0.702-0.703 3.511 7.723 8.075 19.66 11.585 25.628 4.213 7.723 9.83 14.745 16.149 21.064 0 0.351 0.351 0.351 0.352 0.702 0.702 1.755 3.16 3.862 3.861 5.266 0.351 0.702-0.351 1.755 0 2.458 5.266 9.83 12.989 19.66 22.468 27.383 5.968 7.021 15.447 14.394 27.032 20.713 11.234 5.968 24.223 10.883 36.16 13.691 8.426 2.106 18.606 2.457 24.926 3.862 8.426 1.755 23.17-0.702 30.542-2.107 44.234-6.67 88.117-36.862 110.235-80.393 22.819-43.883 22.117-97.596 2.457-138.671" fill="url(#ff3a88b0-6834-4545-b4ac-1ba09ac1b388)" fill-rule="nonzero" stroke="none" stroke-width="1" stroke-linecap="butt" stroke-linejoin="miter" stroke-miterlimit="10" stroke-dasharray="" stroke-dashoffset="0" font-family="none" font-weight="none" font-size="none" text-anchor="none" style="mix-blend-mode: normal" data-fill-palette-color="tertiary"></path></g><g transform="matrix(1,0,0,1,80,162.41149307337096)"><svg viewBox="0 0 160 35.17701385325808" height="35.17701385325808" width="160"><g><svg viewBox="0 0 160 35.17701385325808" height="35.17701385325808" width="160"><g><svg viewBox="0 0 160 35.17701385325808" height="35.17701385325808" width="160"><g><svg viewBox="0 0 160 35.17701385325808" height="35.17701385325808" width="160"><g id="textblocktransform"><svg viewBox="0 0 160 35.17701385325808" height="35.17701385325808" width="160" id="textblock"><g><svg viewBox="0 0 160 35.17701385325808" height="35.17701385325808" width="160"><g transform="matrix(1,0,0,1,0,0)"><svg width="160" viewBox="4.2 -32.64 190.31 41.84" height="35.17701385325808" data-palette-color="url(#0926a24b-3681-4f8b-8b97-789526caa80e)"></svg></g></svg></g></svg></g></svg></g></svg></g></svg></g></svg></g></svg></g><defs></defs><mask id="9b875f1c-b9dd-4211-9ec9-7319861b93a9"><g id="SvgjsG1340"><svg viewBox="0 0 320 360" height="360" width="320"><g><svg></svg></g><g><svg viewBox="0 0 320 360" height="360" width="320"><g><path d="M165.217 303.356c-1.404-1.755-2.809-0.702-2.808-1.755-8.426 2.106-24.223-3.511-30.894-2.809 1.404-2.106-2.106-1.755-2.106-3.159-1.404 2.106-2.809 0-4.915 0.702-2.106-5.266-10.532-1.404-11.585-8.075-4.915 0-6.67-2.809-11.586-5.617 0.351-0.351 0.702-0.351 1.054-0.702-2.457-0.351-2.457-1.755-4.564-1.755l0.702-1.405c-3.862-0.702-5.266-6.67-10.883-8.776-1.755-0.351-5.617-6.319-7.723-7.724-1.053-0.702-2.809-0.702-0.352-1.053-0.351-0.351-0.351-1.053 0-1.404-2.457-0.702-2.809-2.809-5.968-3.862-0.351-1.053 0.702-1.755 0-2.457-0.702-0.351-1.755 0.351-2.457 0-0.351 6.319 6.67 7.021 8.777 12.287-0.702-0.702-1.755-2.809-2.458-1.404-0.351 1.053 2.809 4.915 2.809 2.808-1.053 0.702-1.404-1.053-0.703-1.404 1.053 1.755 3.16 1.404 3.16 2.809-1.053 1.053-2.457-1.053-2.106 0.702 3.16 1.755 2.809 3.511 4.563 5.968-1.404-1.755-1.755 1.404-3.159 0-0.351-5.266-6.319-4.213-6.319-9.479-0.702-1.755-1.404-0.351-2.458-1.053 1.404-1.404-4.213-6.319-4.213-4.564-1.755-2.106-0.702-2.809-1.053-4.213-1.404-0.351-0.351 1.404-1.404 0.351 1.404-2.457-1.755-5.617-3.862-8.074l1.405-0.702c-2.457-1.404-2.809-4.213-4.564-7.373-2.106 3.16 4.213 10.181 3.159 11.585 0 0.351 2.457 3.16 3.16 4.564 2.809 4.915 4.915 10.883 8.777 13.692-0.702-0.351-0.351-2.457 0.702-1.404 0 1.053-0.702 2.106-0.702 3.159 2.106 2.106 3.862 3.862 5.968 5.968-4.564-2.809-9.128-5.617-12.288-9.83 1.755-0.351 3.511 2.809 4.915 2.458-3.511-2.809-2.457-3.862-3.861-7.372-1.404-1.053 0.351 1.404-1.054 1.755-4.564-4.213-8.075-6.67-10.181-10.532 0.351-0.351 0.702-0.702 0.703-1.404-0.351-0.351-0.351-0.351-0.703-0.702 2.106 2.106 2.809 3.862 5.266 4.212-1.053-1.053 0-1.404-1.404-2.457-0.702-1.404-1.755 0.702-2.457-0.351 0.702-1.053 0-2.457 0-3.511-0.702 0-1.404 0-1.756-1.053-0.702-0.351-1.053 0-1.404 0.702-0.351-0.351-0.351-1.053-0.702-1.404v-0.351c-0.351-0.351-0.702-1.053-1.053-1.405-2.809-7.372-4.564-17.202-8.426-23.521 1.053-4.213-0.702-12.638-1.755-14.745 1.053-1.755 0.351-9.83-0.351-11.234-1.755 0.702 0.351 4.564-1.404 5.617-1.755-7.723 1.053-16.5 0.351-23.521 0.702 0 1.404 0 1.404-0.351-1.053-1.053 0.702-3.16 0.351-5.617 1.404-3.16-3.16 4.564-3.16 7.723-0.351 0.702-1.755 0-1.404 1.756 0 2.457 0.702 7.372-0.702 10.883-0.702 0-0.702-0.702-1.404-0.351-0.351 1.755-0.702 3.862-1.053 5.617-0.351-0.702-0.702-1.755-0.703-2.107-1.755-8.777 0-18.958-0.702-26.33 1.404 0 1.404-2.106 2.458-2.808-0.351 2.809-1.053 6.319 0.702 7.021 1.404-13.692 4.213-28.787 10.532-43.532 4.564-10.883 11.234-21.766 19.308-30.543 0.702 1.053-0.351 3.511 0 4.564 7.021-7.372 11.585-16.149 19.309-21.064 0.351 1.755-3.16 3.16-3.16 4.564 3.16-3.16 4.213-2.106 7.724-3.159 1.053-1.404-1.404 0-1.756-1.405 2.106-1.404 3.511-3.16 4.915-4.212 0 0.351-0.351 0.351-0.351 0.702 3.862-1.053 4.213-3.16 7.022-3.862-0.351-0.351-1.053-0.702-2.107-0.351 0.702-0.351 1.755-1.053 2.809-1.404-0.351 0-0.351 0.351-0.702 0.351 2.106-1.053 0.351 0.351 0.351 1.053 0.351 0 0.702-0.351 0.702-0.351-2.106 1.404-3.511 2.106-4.213 4.564 1.053-0.702 1.404 0 2.809-1.054 1.404-0.702-0.351-1.755 0.702-2.457 1.053 0.702 2.457 0.351 3.51 0.351 0-0.702 0.351-1.404 1.054-1.755 0.351-0.702 0-1.053-0.352-1.053 0.351-0.351 0.702-0.351 1.405-0.703 0 0 0.351 0 0.351 0.351 5.968-2.809 12.638-5.266 18.957-7.372 3.862-0.351 8.777-0.351 10.883-2.808-0.702 0-1.404 0.351-1.755 0 0.351 0 1.053-0.351 1.404-0.351 0.702 0.702 1.755 0 0.702 1.404 0.351 0 0.351 0 0.703-0.351 0 0.351 0 0.351 0.351 0.702 0.351 0 0.702-0.351 1.053-1.053 0.351 0 0.702 0 1.053-0.351l-0.351 0.351c2.809-0.702 5.266-0.351 9.128-1.054 0-0.351 0-0.702 0-1.053 0.702 0 1.053-0.351 1.755-0.351v0.351c1.404-0.702 2.809 0.702 2.808 0 0.351 0 0.351 0 0.703 0 0 0.702-0.351 1.053-0.351 1.405 1.755 0 2.809 0 3.51-1.054-0.351-0.351-0.702-0.351-1.053-0.351 0.702 0 1.404-0.351 2.106-0.702 1.053 0.351 1.404 0.702 1.405 2.107 1.755-3.16 7.372 0.702 9.829 0 1.053 0 0.702-1.404 1.405-2.107 0.351 0 0.702 0 1.053 0 1.755 1.404 4.213 2.809 7.372 3.16-2.809-0.702 0.351-1.053 0.702-1.405-0.702 0-0.702-0.351-0.702-0.702 1.053 0 2.106 0.351 3.16 0.351 0 0.702 0.351 1.053 1.053 1.054 0.702 0 0.702-0.351 0.702-1.054 1.053 0 1.755 0 2.809 0.351-0.351 1.404 1.755 1.755 2.457 2.809-2.809-0.702-5.968-1.755-7.021 0 11.234 2.457 23.521 5.968 35.457 11.936 0 0 0 0 0 0.351h0.352c2.106 1.053 4.213 2.106 6.319 3.16 1.404 0.702 2.457 1.404 3.861 2.457 0 0.351 0 0.702 0.703 0.702h0.351c1.404 1.053 2.809 1.755 4.212 2.809 1.404 2.106 2.809 4.915 5.266 4.213 5.266 8.075 10.883 11.234 15.447 19.659 0.351-1.404 1.404 3.16 3.16 3.511-2.809-0.351 1.755 1.755-1.053 1.404 2.457 2.457 3.16 3.511 3.51 6.319-0.702-1.404-1.053-1.755-1.404-0.351-0.351 2.106 2.457-0.351 3.511 1.756-2.106 0-1.404 1.404-1.054 3.159 1.053-1.053 0.702-2.106 1.756-1.755 1.404 1.404-0.702 1.755-0.351 2.809 1.053-1.404 1.404-0.702 2.808 0-1.755 0.351 1.053 2.809-1.053 1.755 1.404 1.755 1.755 2.809 1.053 4.564-1.404-2.106-0.351-3.511-2.457-3.16 4.213 3.511 2.106 11.585 7.021 12.287-3.16 0.702 0 2.106-1.755 2.458 2.106 0.702 1.053 3.511 3.51 4.213-0.351 1.755-1.053 2.809-1.404 4.563 1.053 1.404 1.404 4.213 3.16 4.564-1.053 1.053-0.351 3.862-1.404 4.915 1.404-0.702 2.106-0.702 3.159 0.702-1.755 1.404-0.351 2.809-1.404 3.16 3.16 8.075-0.702 24.575 1.053 30.894-2.106-1.053-1.404 2.457-2.808 2.457 2.457 1.053 0.351 2.809 1.404 4.564-4.915 2.809 0 10.532-6.67 12.287 0.702 4.915-2.106 7.021-4.213 12.288-0.351-0.351-0.351-0.702-0.702-1.054-0.351 2.457-1.755 2.809-1.054 4.915l-1.404-0.702c0 3.862-5.968 5.968-7.372 11.936-0.351 1.755-5.617 6.319-7.022 8.777-0.702 1.053-0.351 2.809-1.053 0.351-0.351 0.351-1.053 0.351-1.404 0.351-0.351 2.457-2.457 3.16-3.16 6.319-0.702 0.351-1.755-0.702-2.457 0.351 0 0.702 0.702 1.755 0.351 2.458 6.319-0.351 6.319-7.723 11.234-10.181-0.351 1.053-2.457 2.106-1.053 2.808 1.053 0 4.213-3.511 2.457-3.159 1.053 0.702-1.053 1.404-1.404 1.053 1.755-1.404 1.053-3.16 2.458-3.511 1.053 0.702-1.053 2.457 1.053 2.107 1.404-3.16 3.16-3.511 5.266-5.266-1.404 1.404 1.755 1.755 0.351 3.159-5.266 1.053-3.511 7.021-8.777 7.724-1.404 1.053-0.351 1.404-0.702 2.457-1.755-1.053-5.617 4.915-4.213 4.564-1.755 1.755-2.809 1.053-4.212 1.404-0.351 1.404 1.404 0.351 0.702 1.405-2.457-1.053-5.617 2.457-7.724 4.915l-1.053-1.054c-1.053 2.809-3.862 3.16-7.021 5.266 3.511 1.755 9.479-5.617 11.234-4.564 0.351 0 3.16-2.809 4.213-3.861 4.564-3.511 10.181-6.319 12.287-10.181-0.351 0.702-2.457 0.702-1.404-0.351 1.053-0.351 2.106 0.351 3.159 0.351 5.617-7.723 12.638-14.043 17.905-23.17 0.351-0.351 0.702-1.053 1.053-1.756-0.702 2.106-1.755 3.862-2.458 5.968-5.617 3.862-7.723 15.096-14.393 16.851 0.351 3.862-3.16 4.915-4.915 9.479-1.053 1.404-1.755-1.053-2.809 0.702 1.053 4.915-8.777 4.564-8.425 9.128-0.702 0.351-1.755 0.702-2.458 1.404h-0.351c-0.351 0.351-0.351 0.351-0.702 0.702-1.755 1.053-3.16 2.106-4.564 3.16-4.915 2.809-11.585 4.915-16.851 7.723v-0.351c-1.404 0.702-3.16 0.351-2.809 1.756-1.053 0.702-2.106 1.404-3.159 2.106-0.351 0-0.351 0-0.702 0 0 0-0.351-0.351-0.702-0.351-0.702 0-0.702 0-1.054 0.351-4.564 0.351-10.532 2.457-12.287 3.862-1.755-1.053-9.83 0.702-11.234 1.404 0.702 1.053 2.809 0 4.564 0-1.053 0.351-2.106 0.702-2.458 1.404-0.351 0-0.351 0-0.702 0-0.351-1.053-1.404 0-1.755-0.351h0.351c-0.351-1.404-1.404-2.106-3.16-1.755 0 0.702 0 1.053-0.351 1.755 0.702 0 2.809-1.053 2.809 0-0.351 0-0.351 0.351 0 0.351-0.702 0.702-1.755 0.702-2.458 1.054-1.404 0-3.16 0-4.563 0-0.351-0.351-0.702-0.351-1.405-0.703-0.351 0.351-1.053 0.351-1.404 0.703-2.106 0-4.564 0.351-6.319 0.702 0-0.702 0-1.404-0.702-1.405-1.053 1.404-3.16-0.351-5.617 0.352-2.457-0.702 1.404 1.053 4.915 1.755-0.351 0.351-0.702 0.702-1.756 1.053M116.068 308.271c-4.915-4.564-15.096-6.67-16.851-10.181-2.809-0.351-7.021-5.617-10.532-6.319 1.755 0 0.351-1.053 0-1.755-0.702 0.702-1.404 1.053-2.106 1.053 0-2.809-2.809-4.564-5.266-6.319 1.755 1.053 3.16 1.755 5.266 2.106 0-0.702 0-1.404 0.702-1.404 2.457 2.457 5.266 4.915 8.425 7.372 4.213 3.862 25.979 13.692 29.841 15.447 0 0-0.702 1.404-0.351 1.404 1.755 1.053 3.16-1.053 3.511 1.404-5.617 0.702-7.723-3.16-12.639-2.808M277.909 226.824v0.351 0c-0.351 0 0-0.351 0-0.351M136.079 64.281c-0.351 0.351-0.702 0.351-0.702 0.351 0-0.351 0.351-0.351 0.702-0.351M129.409 66.036c0 0.351 0 0.351 0 0 0 0.351 0 0.351 0 0 0 0.351 0 0 0 0M106.238 73.408v0c0.351-0.351 0.351-0.351 0.703-0.351-0.351 0-0.702 0.351-0.703 0.351M162.409 61.823c-0.702 0-1.053 0-1.404-0.351 0.351 0 0.702 0 1.053 0h0.351c0 0 0 0 0 0.351M168.728 62.525c-0.351-0.351-1.404-0.702-2.457-0.702 0-0.351 0.351-0.702 0.351-0.702 0.351 0 0.702 0 1.053 0 0 0 0.351 0 0.351 0.351 0 0 0 0 0-0.351 0.351 0 0.351 0 0.702 0 0.351 0.702 0.702 1.053 0 1.404M180.313 63.579c-1.755 0.351-2.809-0.351-4.564-1.405 1.053 0 2.457 0.351 3.511 0.702 0.351 0 0.702 0.351 1.053 0.703M305.292 113.43c-0.702 0.351-1.053 0.351-1.755-1.053-5.617-11.936-15.798-29.138-30.543-43.532-14.394-14.745-33.702-26.681-51.255-33.001 1.053 0.351 2.457 1.053 1.755 1.756-15.447-5.968-30.192-9.479-44.234-10.883-37.915-5.968-77.585 2.106-108.128 21.766 0.351 0.702 0.351 1.053-0.702 1.755-11.234 7.021-27.032 19.309-39.671 35.458-12.638 16.149-22.468 36.511-26.681 54.766 0.351-1.053 0.702-2.809 1.405-2.107-9.128 36.16-6.67 67.053 5.968 93.735 0.702-0.702-1.755-4.213 0.351-3.862 1.404 3.862 3.16 8.075 5.266 11.936 2.457 5.617 5.266 12.989 9.128 14.745-9.83-19.309-16.5-41.426-17.203-61.085 1.404 2.809 1.053 8.777 3.16 11.234 0.702-13.34-2.457-31.245 2.106-43.883-1.053 6.67-1.755 15.798-1.053 24.925 0 6.67 3.16 25.277 5.266 27.032-0.351-0.351-0.351-2.106 0-2.106 1.053 2.106-1.404 3.16 0.351 3.511 0-0.702 0.351-0.702 0.702-0.703 3.511 7.723 8.075 19.66 11.585 25.628 4.213 7.723 9.83 14.745 16.149 21.064 0 0.351 0.351 0.351 0.352 0.702 0.702 1.755 3.16 3.862 3.861 5.266 0.351 0.702-0.351 1.755 0 2.458 5.266 9.83 12.989 19.66 22.468 27.383 5.968 7.021 15.447 14.394 27.032 20.713 11.234 5.968 24.223 10.883 36.16 13.691 8.426 2.106 18.606 2.457 24.926 3.862 8.426 1.755 23.17-0.702 30.542-2.107 44.234-6.67 88.117-36.862 110.235-80.393 22.819-43.883 22.117-97.596 2.457-138.671" fill="black" fill-rule="nonzero" stroke="none" stroke-width="1" stroke-linecap="butt" stroke-linejoin="miter" stroke-miterlimit="10" stroke-dasharray="" stroke-dashoffset="0" font-family="none" font-weight="none" font-size="none" text-anchor="none" style="mix-blend-mode: normal"></path></g><g transform="matrix(1,0,0,1,80,162.41149307337096)"><svg viewBox="0 0 160 35.17701385325808" height="35.17701385325808" width="160"><g><svg viewBox="0 0 160 35.17701385325808" height="35.17701385325808" width="160"><g><svg viewBox="0 0 160 35.17701385325808" height="35.17701385325808" width="160"><g><svg viewBox="0 0 160 35.17701385325808" height="35.17701385325808" width="160"><g id="SvgjsG1339"><svg viewBox="0 0 160 35.17701385325808" height="35.17701385325808" width="160" id="SvgjsSvg1338"><g><svg viewBox="0 0 160 35.17701385325808" height="35.17701385325808" width="160"><g transform="matrix(1,0,0,1,0,0)"><svg width="160" viewBox="4.2 -32.64 190.31 41.84" height="35.17701385325808" data-palette-color="url(#0926a24b-3681-4f8b-8b97-789526caa80e)"><path d="M5.96 0.07Q4.2 0.07 4.2-0.88L4.2-0.88 4.2-29.52Q4.2-30.49 5.96-30.49L5.96-30.49 6.3-30.49Q8.03-30.49 8.03-29.52L8.03-29.52 8.03-17.24 23.75-17.24 23.75-29.52Q23.75-30.49 25.49-30.49L25.49-30.49 25.83-30.49Q27.56-30.49 27.56-29.52L27.56-29.52 27.56-0.88Q27.56-0.39 27.15-0.16 26.73 0.07 25.83 0.07L25.83 0.07 25.49 0.07Q24.58 0.07 24.17-0.16 23.75-0.39 23.75-0.88L23.75-0.88 23.75-13.94 8.03-13.94 8.03-0.88Q8.03 0.07 6.3 0.07L6.3 0.07 5.96 0.07ZM44.85 0.24Q39.45 0.24 36.83-2.58 34.2-5.4 34.2-11.21L34.2-11.21Q34.2-16.97 36.77-19.96 39.33-22.95 44.31-22.95L44.31-22.95Q48.75-22.95 51.01-20.07 53.27-17.19 53.27-11.62L53.27-11.62Q53.27-11.38 53.01-10.95 52.76-10.52 52.4-10.19 52.05-9.86 51.8-9.86L51.8-9.86 38.11-9.86Q38.38-6.23 39.98-4.55 41.57-2.88 44.8-2.88L44.8-2.88Q46.6-2.88 47.91-3.32 49.22-3.76 50.44-4.39L50.44-4.39Q50.56-4.44 50.8-4.57 51.05-4.69 51.14-4.69L51.14-4.69Q51.41-4.69 51.77-4.26 52.12-3.83 52.38-3.31 52.63-2.78 52.63-2.54L52.63-2.54Q52.63-2 51.56-1.34 50.49-0.68 48.69-0.22 46.9 0.24 44.85 0.24L44.85 0.24ZM38.11-12.99L49.39-12.99Q49.39-19.82 44.19-19.82L44.19-19.82Q38.6-19.82 38.11-12.99L38.11-12.99ZM60.71 0.07Q59.79 0.07 59.37-0.16 58.95-0.39 58.95-0.88L58.95-0.88 58.95-16.11Q58.95-18.95 58.69-20.2 58.42-21.46 58.42-21.58L58.42-21.58Q58.42-22.12 59.24-22.35 60.05-22.58 60.79-22.58L60.79-22.58Q61.4-22.58 61.69-21.92 61.98-21.26 62.12-20.58 62.25-19.9 62.3-19.7L62.3-19.7Q63.67-21.24 65.46-22.09 67.26-22.95 69.09-22.95L69.09-22.95Q72.41-22.95 74.27-21.08 76.14-19.21 76.14-15.94L76.14-15.94 76.14-0.88Q76.14-0.39 75.73-0.16 75.31 0.07 74.41 0.07L74.41 0.07 74.21 0.07Q73.33 0.07 72.92-0.16 72.5-0.39 72.5-0.88L72.5-0.88 72.5-15.58Q72.5-17.58 71.35-18.69 70.19-19.8 68.09-19.8L68.09-19.8Q66.62-19.8 65.14-18.98 63.67-18.16 62.59-16.75L62.59-16.75 62.59-0.88Q62.59-0.39 62.18-0.16 61.76 0.07 60.88 0.07L60.88 0.07 60.71 0.07ZM90.37 9.2Q86.22 9.2 83.81 7.91 81.39 6.62 81.39 3.83L81.39 3.83Q81.39 1.93 82.49 0.51 83.59-0.9 85.34-1.61L85.34-1.61 85.39-1.71Q84.54-2.37 84.09-3.22 83.64-4.08 83.64-5.25L83.64-5.25Q83.64-8.08 86.08-9.79L86.08-9.79Q84.25-10.67 83.29-12.27 82.34-13.87 82.34-15.87L82.34-15.87Q82.34-17.87 83.33-19.48 84.32-21.09 86.25-22.02 88.18-22.95 90.89-22.95L90.89-22.95Q92.33-22.95 93.45-22.71L93.45-22.71 101.34-22.71Q101.8-22.71 102.01-22.4 102.21-22.09 102.21-21.41L102.21-21.41 102.21-20.87Q102.21-20.19 102.01-19.89 101.8-19.58 101.34-19.58L101.34-19.58Q99.7-19.58 98.31-19.7L98.31-19.7 98.26-19.63Q98.82-18.85 99.1-17.88 99.38-16.92 99.38-15.87L99.38-15.87Q99.38-13.87 98.39-12.26 97.4-10.64 95.49-9.72 93.57-8.79 90.84-8.79L90.84-8.79Q88.79-8.72 87.75-8.03 86.71-7.35 86.71-5.79L86.71-5.79Q86.71-4.64 87.46-4.03 88.2-3.42 89.32-3.17 90.45-2.93 92.45-2.71L92.45-2.71 93.72-2.56Q95.74-2.29 97.11-1.83 98.48-1.37 99.37-0.29 100.26 0.78 100.26 2.66L100.26 2.66Q100.26 5.81 97.75 7.51 95.23 9.2 90.37 9.2L90.37 9.2ZM90.84-11.67Q93.23-11.67 94.65-12.65 96.06-13.62 96.06-15.84L96.06-15.84Q96.06-20.04 90.84-20.04L90.84-20.04Q85.69-20.04 85.69-15.84L85.69-15.84Q85.69-13.62 87.09-12.65 88.49-11.67 90.84-11.67L90.84-11.67ZM90.84 6.25Q93.86 6.25 95.33 5.46 96.79 4.66 96.79 3.05L96.79 3.05Q96.79 2 96.01 1.43 95.23 0.85 94.1 0.62 92.96 0.39 91.11 0.2L91.11 0.2Q89.84 0.05 89.02-0.07 88.2-0.2 87.52-0.42L87.52-0.42Q84.64 0.81 84.64 3.13L84.64 3.13Q84.64 6.25 90.84 6.25L90.84 6.25ZM105.65 0Q105.39 0 105.04-0.79 104.7-1.59 104.7-2.22L104.7-2.22Q104.7-2.47 104.82-2.71L104.82-2.71 117.54-19.58 106.44-19.58Q105.97-19.58 105.78-19.89 105.58-20.19 105.58-20.87L105.58-20.87 105.58-21.41Q105.58-22.09 105.78-22.4 105.97-22.71 106.44-22.71L106.44-22.71 121.67-22.71Q121.96-22.71 122.26-21.9 122.55-21.09 122.55-20.46L122.55-20.46Q122.55-20.24 122.45-20L122.45-20 109.78-3.13 121.72-3.13Q122.18-3.13 122.38-2.82 122.57-2.51 122.57-1.83L122.57-1.83 122.57-1.29Q122.57-0.63 122.38-0.32 122.18 0 121.72 0L121.72 0 105.65 0ZM130.07 0.07Q128.33 0.07 128.33-0.88L128.33-0.88 128.33-31.69Q128.33-32.64 130.07-32.64L130.07-32.64 130.24-32.64Q131.99-32.64 131.99-31.69L131.99-31.69 131.99-19.97Q133.26-21.26 134.97-22.11 136.68-22.95 138.61-22.95L138.61-22.95Q141.34-22.95 143.43-21.41 145.52-19.87 145.52-15.94L145.52-15.94 145.52-0.88Q145.52 0.07 143.79 0.07L143.79 0.07 143.62 0.07Q141.86 0.07 141.86-0.88L141.86-0.88 141.86-15.58Q141.86-17.55 140.73-18.68 139.61-19.8 137.44-19.8L137.44-19.8Q136-19.8 134.79-19.12 133.58-18.43 132.79-17.64 131.99-16.85 131.99-16.75L131.99-16.75 131.99-0.88Q131.99 0.07 130.24 0.07L130.24 0.07 130.07 0.07ZM161.31 0.24Q156.41 0.24 153.83-2.7 151.25-5.64 151.25-11.25L151.25-11.25Q151.25-16.87 153.87-19.91 156.48-22.95 161.31-22.95L161.31-22.95Q166.1-22.95 168.64-19.93 171.18-16.92 171.18-11.25L171.18-11.25Q171.18-5.62 168.67-2.69 166.17 0.24 161.31 0.24L161.31 0.24ZM161.19-2.88Q164.36-2.88 165.88-4.94 167.39-7.01 167.39-11.33L167.39-11.33Q167.39-15.67 165.88-17.75 164.36-19.82 161.19-19.82L161.19-19.82Q158.04-19.82 156.55-17.76 155.06-15.7 155.06-11.33L155.06-11.33Q155.06-6.98 156.54-4.93 158.02-2.88 161.19-2.88L161.19-2.88ZM183.89 0.24Q180.57 0.24 178.69-1.62 176.81-3.49 176.81-6.79L176.81-6.79 176.81-21.83Q176.81-22.78 178.57-22.78L178.57-22.78 178.74-22.78Q180.48-22.78 180.48-21.83L180.48-21.83 180.48-7.13Q180.48-5.13 181.64-4.02 182.8-2.91 184.89-2.91L184.89-2.91Q186.36-2.91 187.82-3.72 189.29-4.54 190.36-5.96L190.36-5.96 190.36-21.83Q190.36-22.78 192.1-22.78L192.1-22.78 192.27-22.78Q194.03-22.78 194.03-21.83L194.03-21.83 194.03-6.42Q194.03-3.59 194.27-2.33 194.51-1.07 194.51-0.95L194.51-0.95Q194.51-0.42 193.71-0.18 192.9 0.05 192.19 0.05L192.19 0.05Q191.58 0.05 191.29-0.65 191-1.34 190.86-2.08 190.73-2.81 190.68-3L190.68-3Q189.31-1.46 187.52-0.61 185.72 0.24 183.89 0.24L183.89 0.24Z" opacity="1" transform="matrix(1,0,0,1,0,0)" fill="white" class="wordmark-text-0" id="SvgjsPath1337"></path></svg></g></svg></g></svg></g></svg></g></svg></g></svg></g></svg></g></svg></g><defs><mask></mask></defs></svg><rect width="320" height="360" fill="black" stroke="none" visibility="hidden"></rect></g></mask><linearGradient x1="0" x2="1" y1="0.578" y2="0.595" id="0926a24b-3681-4f8b-8b97-789526caa80e"><stop stop-color="#6ee2f5" offset="0"></stop><stop stop-color="#6454f0" offset="1"></stop></linearGradient><rect width="320" height="360" fill="url(#0926a24b-3681-4f8b-8b97-789526caa80e)" mask="url(#9b875f1c-b9dd-4211-9ec9-7319861b93a9)" data-fill-palette-color="primary"></rect><mask id="9d16a4a9-876f-4e56-9b02-e32c147a07f3"><g id="SvgjsG1363"><svg viewBox="0 0 320 360" height="360" width="320"><g><svg></svg></g><g><svg viewBox="0 0 320 360" height="360" width="320"><g><path d="M165.217 303.356c-1.404-1.755-2.809-0.702-2.808-1.755-8.426 2.106-24.223-3.511-30.894-2.809 1.404-2.106-2.106-1.755-2.106-3.159-1.404 2.106-2.809 0-4.915 0.702-2.106-5.266-10.532-1.404-11.585-8.075-4.915 0-6.67-2.809-11.586-5.617 0.351-0.351 0.702-0.351 1.054-0.702-2.457-0.351-2.457-1.755-4.564-1.755l0.702-1.405c-3.862-0.702-5.266-6.67-10.883-8.776-1.755-0.351-5.617-6.319-7.723-7.724-1.053-0.702-2.809-0.702-0.352-1.053-0.351-0.351-0.351-1.053 0-1.404-2.457-0.702-2.809-2.809-5.968-3.862-0.351-1.053 0.702-1.755 0-2.457-0.702-0.351-1.755 0.351-2.457 0-0.351 6.319 6.67 7.021 8.777 12.287-0.702-0.702-1.755-2.809-2.458-1.404-0.351 1.053 2.809 4.915 2.809 2.808-1.053 0.702-1.404-1.053-0.703-1.404 1.053 1.755 3.16 1.404 3.16 2.809-1.053 1.053-2.457-1.053-2.106 0.702 3.16 1.755 2.809 3.511 4.563 5.968-1.404-1.755-1.755 1.404-3.159 0-0.351-5.266-6.319-4.213-6.319-9.479-0.702-1.755-1.404-0.351-2.458-1.053 1.404-1.404-4.213-6.319-4.213-4.564-1.755-2.106-0.702-2.809-1.053-4.213-1.404-0.351-0.351 1.404-1.404 0.351 1.404-2.457-1.755-5.617-3.862-8.074l1.405-0.702c-2.457-1.404-2.809-4.213-4.564-7.373-2.106 3.16 4.213 10.181 3.159 11.585 0 0.351 2.457 3.16 3.16 4.564 2.809 4.915 4.915 10.883 8.777 13.692-0.702-0.351-0.351-2.457 0.702-1.404 0 1.053-0.702 2.106-0.702 3.159 2.106 2.106 3.862 3.862 5.968 5.968-4.564-2.809-9.128-5.617-12.288-9.83 1.755-0.351 3.511 2.809 4.915 2.458-3.511-2.809-2.457-3.862-3.861-7.372-1.404-1.053 0.351 1.404-1.054 1.755-4.564-4.213-8.075-6.67-10.181-10.532 0.351-0.351 0.702-0.702 0.703-1.404-0.351-0.351-0.351-0.351-0.703-0.702 2.106 2.106 2.809 3.862 5.266 4.212-1.053-1.053 0-1.404-1.404-2.457-0.702-1.404-1.755 0.702-2.457-0.351 0.702-1.053 0-2.457 0-3.511-0.702 0-1.404 0-1.756-1.053-0.702-0.351-1.053 0-1.404 0.702-0.351-0.351-0.351-1.053-0.702-1.404v-0.351c-0.351-0.351-0.702-1.053-1.053-1.405-2.809-7.372-4.564-17.202-8.426-23.521 1.053-4.213-0.702-12.638-1.755-14.745 1.053-1.755 0.351-9.83-0.351-11.234-1.755 0.702 0.351 4.564-1.404 5.617-1.755-7.723 1.053-16.5 0.351-23.521 0.702 0 1.404 0 1.404-0.351-1.053-1.053 0.702-3.16 0.351-5.617 1.404-3.16-3.16 4.564-3.16 7.723-0.351 0.702-1.755 0-1.404 1.756 0 2.457 0.702 7.372-0.702 10.883-0.702 0-0.702-0.702-1.404-0.351-0.351 1.755-0.702 3.862-1.053 5.617-0.351-0.702-0.702-1.755-0.703-2.107-1.755-8.777 0-18.958-0.702-26.33 1.404 0 1.404-2.106 2.458-2.808-0.351 2.809-1.053 6.319 0.702 7.021 1.404-13.692 4.213-28.787 10.532-43.532 4.564-10.883 11.234-21.766 19.308-30.543 0.702 1.053-0.351 3.511 0 4.564 7.021-7.372 11.585-16.149 19.309-21.064 0.351 1.755-3.16 3.16-3.16 4.564 3.16-3.16 4.213-2.106 7.724-3.159 1.053-1.404-1.404 0-1.756-1.405 2.106-1.404 3.511-3.16 4.915-4.212 0 0.351-0.351 0.351-0.351 0.702 3.862-1.053 4.213-3.16 7.022-3.862-0.351-0.351-1.053-0.702-2.107-0.351 0.702-0.351 1.755-1.053 2.809-1.404-0.351 0-0.351 0.351-0.702 0.351 2.106-1.053 0.351 0.351 0.351 1.053 0.351 0 0.702-0.351 0.702-0.351-2.106 1.404-3.511 2.106-4.213 4.564 1.053-0.702 1.404 0 2.809-1.054 1.404-0.702-0.351-1.755 0.702-2.457 1.053 0.702 2.457 0.351 3.51 0.351 0-0.702 0.351-1.404 1.054-1.755 0.351-0.702 0-1.053-0.352-1.053 0.351-0.351 0.702-0.351 1.405-0.703 0 0 0.351 0 0.351 0.351 5.968-2.809 12.638-5.266 18.957-7.372 3.862-0.351 8.777-0.351 10.883-2.808-0.702 0-1.404 0.351-1.755 0 0.351 0 1.053-0.351 1.404-0.351 0.702 0.702 1.755 0 0.702 1.404 0.351 0 0.351 0 0.703-0.351 0 0.351 0 0.351 0.351 0.702 0.351 0 0.702-0.351 1.053-1.053 0.351 0 0.702 0 1.053-0.351l-0.351 0.351c2.809-0.702 5.266-0.351 9.128-1.054 0-0.351 0-0.702 0-1.053 0.702 0 1.053-0.351 1.755-0.351v0.351c1.404-0.702 2.809 0.702 2.808 0 0.351 0 0.351 0 0.703 0 0 0.702-0.351 1.053-0.351 1.405 1.755 0 2.809 0 3.51-1.054-0.351-0.351-0.702-0.351-1.053-0.351 0.702 0 1.404-0.351 2.106-0.702 1.053 0.351 1.404 0.702 1.405 2.107 1.755-3.16 7.372 0.702 9.829 0 1.053 0 0.702-1.404 1.405-2.107 0.351 0 0.702 0 1.053 0 1.755 1.404 4.213 2.809 7.372 3.16-2.809-0.702 0.351-1.053 0.702-1.405-0.702 0-0.702-0.351-0.702-0.702 1.053 0 2.106 0.351 3.16 0.351 0 0.702 0.351 1.053 1.053 1.054 0.702 0 0.702-0.351 0.702-1.054 1.053 0 1.755 0 2.809 0.351-0.351 1.404 1.755 1.755 2.457 2.809-2.809-0.702-5.968-1.755-7.021 0 11.234 2.457 23.521 5.968 35.457 11.936 0 0 0 0 0 0.351h0.352c2.106 1.053 4.213 2.106 6.319 3.16 1.404 0.702 2.457 1.404 3.861 2.457 0 0.351 0 0.702 0.703 0.702h0.351c1.404 1.053 2.809 1.755 4.212 2.809 1.404 2.106 2.809 4.915 5.266 4.213 5.266 8.075 10.883 11.234 15.447 19.659 0.351-1.404 1.404 3.16 3.16 3.511-2.809-0.351 1.755 1.755-1.053 1.404 2.457 2.457 3.16 3.511 3.51 6.319-0.702-1.404-1.053-1.755-1.404-0.351-0.351 2.106 2.457-0.351 3.511 1.756-2.106 0-1.404 1.404-1.054 3.159 1.053-1.053 0.702-2.106 1.756-1.755 1.404 1.404-0.702 1.755-0.351 2.809 1.053-1.404 1.404-0.702 2.808 0-1.755 0.351 1.053 2.809-1.053 1.755 1.404 1.755 1.755 2.809 1.053 4.564-1.404-2.106-0.351-3.511-2.457-3.16 4.213 3.511 2.106 11.585 7.021 12.287-3.16 0.702 0 2.106-1.755 2.458 2.106 0.702 1.053 3.511 3.51 4.213-0.351 1.755-1.053 2.809-1.404 4.563 1.053 1.404 1.404 4.213 3.16 4.564-1.053 1.053-0.351 3.862-1.404 4.915 1.404-0.702 2.106-0.702 3.159 0.702-1.755 1.404-0.351 2.809-1.404 3.16 3.16 8.075-0.702 24.575 1.053 30.894-2.106-1.053-1.404 2.457-2.808 2.457 2.457 1.053 0.351 2.809 1.404 4.564-4.915 2.809 0 10.532-6.67 12.287 0.702 4.915-2.106 7.021-4.213 12.288-0.351-0.351-0.351-0.702-0.702-1.054-0.351 2.457-1.755 2.809-1.054 4.915l-1.404-0.702c0 3.862-5.968 5.968-7.372 11.936-0.351 1.755-5.617 6.319-7.022 8.777-0.702 1.053-0.351 2.809-1.053 0.351-0.351 0.351-1.053 0.351-1.404 0.351-0.351 2.457-2.457 3.16-3.16 6.319-0.702 0.351-1.755-0.702-2.457 0.351 0 0.702 0.702 1.755 0.351 2.458 6.319-0.351 6.319-7.723 11.234-10.181-0.351 1.053-2.457 2.106-1.053 2.808 1.053 0 4.213-3.511 2.457-3.159 1.053 0.702-1.053 1.404-1.404 1.053 1.755-1.404 1.053-3.16 2.458-3.511 1.053 0.702-1.053 2.457 1.053 2.107 1.404-3.16 3.16-3.511 5.266-5.266-1.404 1.404 1.755 1.755 0.351 3.159-5.266 1.053-3.511 7.021-8.777 7.724-1.404 1.053-0.351 1.404-0.702 2.457-1.755-1.053-5.617 4.915-4.213 4.564-1.755 1.755-2.809 1.053-4.212 1.404-0.351 1.404 1.404 0.351 0.702 1.405-2.457-1.053-5.617 2.457-7.724 4.915l-1.053-1.054c-1.053 2.809-3.862 3.16-7.021 5.266 3.511 1.755 9.479-5.617 11.234-4.564 0.351 0 3.16-2.809 4.213-3.861 4.564-3.511 10.181-6.319 12.287-10.181-0.351 0.702-2.457 0.702-1.404-0.351 1.053-0.351 2.106 0.351 3.159 0.351 5.617-7.723 12.638-14.043 17.905-23.17 0.351-0.351 0.702-1.053 1.053-1.756-0.702 2.106-1.755 3.862-2.458 5.968-5.617 3.862-7.723 15.096-14.393 16.851 0.351 3.862-3.16 4.915-4.915 9.479-1.053 1.404-1.755-1.053-2.809 0.702 1.053 4.915-8.777 4.564-8.425 9.128-0.702 0.351-1.755 0.702-2.458 1.404h-0.351c-0.351 0.351-0.351 0.351-0.702 0.702-1.755 1.053-3.16 2.106-4.564 3.16-4.915 2.809-11.585 4.915-16.851 7.723v-0.351c-1.404 0.702-3.16 0.351-2.809 1.756-1.053 0.702-2.106 1.404-3.159 2.106-0.351 0-0.351 0-0.702 0 0 0-0.351-0.351-0.702-0.351-0.702 0-0.702 0-1.054 0.351-4.564 0.351-10.532 2.457-12.287 3.862-1.755-1.053-9.83 0.702-11.234 1.404 0.702 1.053 2.809 0 4.564 0-1.053 0.351-2.106 0.702-2.458 1.404-0.351 0-0.351 0-0.702 0-0.351-1.053-1.404 0-1.755-0.351h0.351c-0.351-1.404-1.404-2.106-3.16-1.755 0 0.702 0 1.053-0.351 1.755 0.702 0 2.809-1.053 2.809 0-0.351 0-0.351 0.351 0 0.351-0.702 0.702-1.755 0.702-2.458 1.054-1.404 0-3.16 0-4.563 0-0.351-0.351-0.702-0.351-1.405-0.703-0.351 0.351-1.053 0.351-1.404 0.703-2.106 0-4.564 0.351-6.319 0.702 0-0.702 0-1.404-0.702-1.405-1.053 1.404-3.16-0.351-5.617 0.352-2.457-0.702 1.404 1.053 4.915 1.755-0.351 0.351-0.702 0.702-1.756 1.053M116.068 308.271c-4.915-4.564-15.096-6.67-16.851-10.181-2.809-0.351-7.021-5.617-10.532-6.319 1.755 0 0.351-1.053 0-1.755-0.702 0.702-1.404 1.053-2.106 1.053 0-2.809-2.809-4.564-5.266-6.319 1.755 1.053 3.16 1.755 5.266 2.106 0-0.702 0-1.404 0.702-1.404 2.457 2.457 5.266 4.915 8.425 7.372 4.213 3.862 25.979 13.692 29.841 15.447 0 0-0.702 1.404-0.351 1.404 1.755 1.053 3.16-1.053 3.511 1.404-5.617 0.702-7.723-3.16-12.639-2.808M277.909 226.824v0.351 0c-0.351 0 0-0.351 0-0.351M136.079 64.281c-0.351 0.351-0.702 0.351-0.702 0.351 0-0.351 0.351-0.351 0.702-0.351M129.409 66.036c0 0.351 0 0.351 0 0 0 0.351 0 0.351 0 0 0 0.351 0 0 0 0M106.238 73.408v0c0.351-0.351 0.351-0.351 0.703-0.351-0.351 0-0.702 0.351-0.703 0.351M162.409 61.823c-0.702 0-1.053 0-1.404-0.351 0.351 0 0.702 0 1.053 0h0.351c0 0 0 0 0 0.351M168.728 62.525c-0.351-0.351-1.404-0.702-2.457-0.702 0-0.351 0.351-0.702 0.351-0.702 0.351 0 0.702 0 1.053 0 0 0 0.351 0 0.351 0.351 0 0 0 0 0-0.351 0.351 0 0.351 0 0.702 0 0.351 0.702 0.702 1.053 0 1.404M180.313 63.579c-1.755 0.351-2.809-0.351-4.564-1.405 1.053 0 2.457 0.351 3.511 0.702 0.351 0 0.702 0.351 1.053 0.703M305.292 113.43c-0.702 0.351-1.053 0.351-1.755-1.053-5.617-11.936-15.798-29.138-30.543-43.532-14.394-14.745-33.702-26.681-51.255-33.001 1.053 0.351 2.457 1.053 1.755 1.756-15.447-5.968-30.192-9.479-44.234-10.883-37.915-5.968-77.585 2.106-108.128 21.766 0.351 0.702 0.351 1.053-0.702 1.755-11.234 7.021-27.032 19.309-39.671 35.458-12.638 16.149-22.468 36.511-26.681 54.766 0.351-1.053 0.702-2.809 1.405-2.107-9.128 36.16-6.67 67.053 5.968 93.735 0.702-0.702-1.755-4.213 0.351-3.862 1.404 3.862 3.16 8.075 5.266 11.936 2.457 5.617 5.266 12.989 9.128 14.745-9.83-19.309-16.5-41.426-17.203-61.085 1.404 2.809 1.053 8.777 3.16 11.234 0.702-13.34-2.457-31.245 2.106-43.883-1.053 6.67-1.755 15.798-1.053 24.925 0 6.67 3.16 25.277 5.266 27.032-0.351-0.351-0.351-2.106 0-2.106 1.053 2.106-1.404 3.16 0.351 3.511 0-0.702 0.351-0.702 0.702-0.703 3.511 7.723 8.075 19.66 11.585 25.628 4.213 7.723 9.83 14.745 16.149 21.064 0 0.351 0.351 0.351 0.352 0.702 0.702 1.755 3.16 3.862 3.861 5.266 0.351 0.702-0.351 1.755 0 2.458 5.266 9.83 12.989 19.66 22.468 27.383 5.968 7.021 15.447 14.394 27.032 20.713 11.234 5.968 24.223 10.883 36.16 13.691 8.426 2.106 18.606 2.457 24.926 3.862 8.426 1.755 23.17-0.702 30.542-2.107 44.234-6.67 88.117-36.862 110.235-80.393 22.819-43.883 22.117-97.596 2.457-138.671" fill="white" fill-rule="nonzero" stroke="none" stroke-width="1" stroke-linecap="butt" stroke-linejoin="miter" stroke-miterlimit="10" stroke-dasharray="" stroke-dashoffset="0" font-family="none" font-weight="none" font-size="none" text-anchor="none" style="mix-blend-mode: normal"></path></g><g transform="matrix(1,0,0,1,80,162.41149307337096)"><svg viewBox="0 0 160 35.17701385325808" height="35.17701385325808" width="160"><g><svg viewBox="0 0 160 35.17701385325808" height="35.17701385325808" width="160"><g><svg viewBox="0 0 160 35.17701385325808" height="35.17701385325808" width="160"><g><svg viewBox="0 0 160 35.17701385325808" height="35.17701385325808" width="160"><g id="SvgjsG1362"><svg viewBox="0 0 160 35.17701385325808" height="35.17701385325808" width="160" id="SvgjsSvg1361"><g><svg viewBox="0 0 160 35.17701385325808" height="35.17701385325808" width="160"><g transform="matrix(1,0,0,1,0,0)"><svg width="160" viewBox="4.2 -32.64 190.31 41.84" height="35.17701385325808" data-palette-color="url(#0926a24b-3681-4f8b-8b97-789526caa80e)"></svg></g></svg></g></svg></g></svg></g></svg></g></svg></g></svg></g></svg></g><defs><mask></mask></defs><mask><g id="SvgjsG1360"><svg viewBox="0 0 320 360" height="360" width="320"><g><svg></svg></g><g><svg viewBox="0 0 320 360" height="360" width="320"><g><path d="M165.217 303.356c-1.404-1.755-2.809-0.702-2.808-1.755-8.426 2.106-24.223-3.511-30.894-2.809 1.404-2.106-2.106-1.755-2.106-3.159-1.404 2.106-2.809 0-4.915 0.702-2.106-5.266-10.532-1.404-11.585-8.075-4.915 0-6.67-2.809-11.586-5.617 0.351-0.351 0.702-0.351 1.054-0.702-2.457-0.351-2.457-1.755-4.564-1.755l0.702-1.405c-3.862-0.702-5.266-6.67-10.883-8.776-1.755-0.351-5.617-6.319-7.723-7.724-1.053-0.702-2.809-0.702-0.352-1.053-0.351-0.351-0.351-1.053 0-1.404-2.457-0.702-2.809-2.809-5.968-3.862-0.351-1.053 0.702-1.755 0-2.457-0.702-0.351-1.755 0.351-2.457 0-0.351 6.319 6.67 7.021 8.777 12.287-0.702-0.702-1.755-2.809-2.458-1.404-0.351 1.053 2.809 4.915 2.809 2.808-1.053 0.702-1.404-1.053-0.703-1.404 1.053 1.755 3.16 1.404 3.16 2.809-1.053 1.053-2.457-1.053-2.106 0.702 3.16 1.755 2.809 3.511 4.563 5.968-1.404-1.755-1.755 1.404-3.159 0-0.351-5.266-6.319-4.213-6.319-9.479-0.702-1.755-1.404-0.351-2.458-1.053 1.404-1.404-4.213-6.319-4.213-4.564-1.755-2.106-0.702-2.809-1.053-4.213-1.404-0.351-0.351 1.404-1.404 0.351 1.404-2.457-1.755-5.617-3.862-8.074l1.405-0.702c-2.457-1.404-2.809-4.213-4.564-7.373-2.106 3.16 4.213 10.181 3.159 11.585 0 0.351 2.457 3.16 3.16 4.564 2.809 4.915 4.915 10.883 8.777 13.692-0.702-0.351-0.351-2.457 0.702-1.404 0 1.053-0.702 2.106-0.702 3.159 2.106 2.106 3.862 3.862 5.968 5.968-4.564-2.809-9.128-5.617-12.288-9.83 1.755-0.351 3.511 2.809 4.915 2.458-3.511-2.809-2.457-3.862-3.861-7.372-1.404-1.053 0.351 1.404-1.054 1.755-4.564-4.213-8.075-6.67-10.181-10.532 0.351-0.351 0.702-0.702 0.703-1.404-0.351-0.351-0.351-0.351-0.703-0.702 2.106 2.106 2.809 3.862 5.266 4.212-1.053-1.053 0-1.404-1.404-2.457-0.702-1.404-1.755 0.702-2.457-0.351 0.702-1.053 0-2.457 0-3.511-0.702 0-1.404 0-1.756-1.053-0.702-0.351-1.053 0-1.404 0.702-0.351-0.351-0.351-1.053-0.702-1.404v-0.351c-0.351-0.351-0.702-1.053-1.053-1.405-2.809-7.372-4.564-17.202-8.426-23.521 1.053-4.213-0.702-12.638-1.755-14.745 1.053-1.755 0.351-9.83-0.351-11.234-1.755 0.702 0.351 4.564-1.404 5.617-1.755-7.723 1.053-16.5 0.351-23.521 0.702 0 1.404 0 1.404-0.351-1.053-1.053 0.702-3.16 0.351-5.617 1.404-3.16-3.16 4.564-3.16 7.723-0.351 0.702-1.755 0-1.404 1.756 0 2.457 0.702 7.372-0.702 10.883-0.702 0-0.702-0.702-1.404-0.351-0.351 1.755-0.702 3.862-1.053 5.617-0.351-0.702-0.702-1.755-0.703-2.107-1.755-8.777 0-18.958-0.702-26.33 1.404 0 1.404-2.106 2.458-2.808-0.351 2.809-1.053 6.319 0.702 7.021 1.404-13.692 4.213-28.787 10.532-43.532 4.564-10.883 11.234-21.766 19.308-30.543 0.702 1.053-0.351 3.511 0 4.564 7.021-7.372 11.585-16.149 19.309-21.064 0.351 1.755-3.16 3.16-3.16 4.564 3.16-3.16 4.213-2.106 7.724-3.159 1.053-1.404-1.404 0-1.756-1.405 2.106-1.404 3.511-3.16 4.915-4.212 0 0.351-0.351 0.351-0.351 0.702 3.862-1.053 4.213-3.16 7.022-3.862-0.351-0.351-1.053-0.702-2.107-0.351 0.702-0.351 1.755-1.053 2.809-1.404-0.351 0-0.351 0.351-0.702 0.351 2.106-1.053 0.351 0.351 0.351 1.053 0.351 0 0.702-0.351 0.702-0.351-2.106 1.404-3.511 2.106-4.213 4.564 1.053-0.702 1.404 0 2.809-1.054 1.404-0.702-0.351-1.755 0.702-2.457 1.053 0.702 2.457 0.351 3.51 0.351 0-0.702 0.351-1.404 1.054-1.755 0.351-0.702 0-1.053-0.352-1.053 0.351-0.351 0.702-0.351 1.405-0.703 0 0 0.351 0 0.351 0.351 5.968-2.809 12.638-5.266 18.957-7.372 3.862-0.351 8.777-0.351 10.883-2.808-0.702 0-1.404 0.351-1.755 0 0.351 0 1.053-0.351 1.404-0.351 0.702 0.702 1.755 0 0.702 1.404 0.351 0 0.351 0 0.703-0.351 0 0.351 0 0.351 0.351 0.702 0.351 0 0.702-0.351 1.053-1.053 0.351 0 0.702 0 1.053-0.351l-0.351 0.351c2.809-0.702 5.266-0.351 9.128-1.054 0-0.351 0-0.702 0-1.053 0.702 0 1.053-0.351 1.755-0.351v0.351c1.404-0.702 2.809 0.702 2.808 0 0.351 0 0.351 0 0.703 0 0 0.702-0.351 1.053-0.351 1.405 1.755 0 2.809 0 3.51-1.054-0.351-0.351-0.702-0.351-1.053-0.351 0.702 0 1.404-0.351 2.106-0.702 1.053 0.351 1.404 0.702 1.405 2.107 1.755-3.16 7.372 0.702 9.829 0 1.053 0 0.702-1.404 1.405-2.107 0.351 0 0.702 0 1.053 0 1.755 1.404 4.213 2.809 7.372 3.16-2.809-0.702 0.351-1.053 0.702-1.405-0.702 0-0.702-0.351-0.702-0.702 1.053 0 2.106 0.351 3.16 0.351 0 0.702 0.351 1.053 1.053 1.054 0.702 0 0.702-0.351 0.702-1.054 1.053 0 1.755 0 2.809 0.351-0.351 1.404 1.755 1.755 2.457 2.809-2.809-0.702-5.968-1.755-7.021 0 11.234 2.457 23.521 5.968 35.457 11.936 0 0 0 0 0 0.351h0.352c2.106 1.053 4.213 2.106 6.319 3.16 1.404 0.702 2.457 1.404 3.861 2.457 0 0.351 0 0.702 0.703 0.702h0.351c1.404 1.053 2.809 1.755 4.212 2.809 1.404 2.106 2.809 4.915 5.266 4.213 5.266 8.075 10.883 11.234 15.447 19.659 0.351-1.404 1.404 3.16 3.16 3.511-2.809-0.351 1.755 1.755-1.053 1.404 2.457 2.457 3.16 3.511 3.51 6.319-0.702-1.404-1.053-1.755-1.404-0.351-0.351 2.106 2.457-0.351 3.511 1.756-2.106 0-1.404 1.404-1.054 3.159 1.053-1.053 0.702-2.106 1.756-1.755 1.404 1.404-0.702 1.755-0.351 2.809 1.053-1.404 1.404-0.702 2.808 0-1.755 0.351 1.053 2.809-1.053 1.755 1.404 1.755 1.755 2.809 1.053 4.564-1.404-2.106-0.351-3.511-2.457-3.16 4.213 3.511 2.106 11.585 7.021 12.287-3.16 0.702 0 2.106-1.755 2.458 2.106 0.702 1.053 3.511 3.51 4.213-0.351 1.755-1.053 2.809-1.404 4.563 1.053 1.404 1.404 4.213 3.16 4.564-1.053 1.053-0.351 3.862-1.404 4.915 1.404-0.702 2.106-0.702 3.159 0.702-1.755 1.404-0.351 2.809-1.404 3.16 3.16 8.075-0.702 24.575 1.053 30.894-2.106-1.053-1.404 2.457-2.808 2.457 2.457 1.053 0.351 2.809 1.404 4.564-4.915 2.809 0 10.532-6.67 12.287 0.702 4.915-2.106 7.021-4.213 12.288-0.351-0.351-0.351-0.702-0.702-1.054-0.351 2.457-1.755 2.809-1.054 4.915l-1.404-0.702c0 3.862-5.968 5.968-7.372 11.936-0.351 1.755-5.617 6.319-7.022 8.777-0.702 1.053-0.351 2.809-1.053 0.351-0.351 0.351-1.053 0.351-1.404 0.351-0.351 2.457-2.457 3.16-3.16 6.319-0.702 0.351-1.755-0.702-2.457 0.351 0 0.702 0.702 1.755 0.351 2.458 6.319-0.351 6.319-7.723 11.234-10.181-0.351 1.053-2.457 2.106-1.053 2.808 1.053 0 4.213-3.511 2.457-3.159 1.053 0.702-1.053 1.404-1.404 1.053 1.755-1.404 1.053-3.16 2.458-3.511 1.053 0.702-1.053 2.457 1.053 2.107 1.404-3.16 3.16-3.511 5.266-5.266-1.404 1.404 1.755 1.755 0.351 3.159-5.266 1.053-3.511 7.021-8.777 7.724-1.404 1.053-0.351 1.404-0.702 2.457-1.755-1.053-5.617 4.915-4.213 4.564-1.755 1.755-2.809 1.053-4.212 1.404-0.351 1.404 1.404 0.351 0.702 1.405-2.457-1.053-5.617 2.457-7.724 4.915l-1.053-1.054c-1.053 2.809-3.862 3.16-7.021 5.266 3.511 1.755 9.479-5.617 11.234-4.564 0.351 0 3.16-2.809 4.213-3.861 4.564-3.511 10.181-6.319 12.287-10.181-0.351 0.702-2.457 0.702-1.404-0.351 1.053-0.351 2.106 0.351 3.159 0.351 5.617-7.723 12.638-14.043 17.905-23.17 0.351-0.351 0.702-1.053 1.053-1.756-0.702 2.106-1.755 3.862-2.458 5.968-5.617 3.862-7.723 15.096-14.393 16.851 0.351 3.862-3.16 4.915-4.915 9.479-1.053 1.404-1.755-1.053-2.809 0.702 1.053 4.915-8.777 4.564-8.425 9.128-0.702 0.351-1.755 0.702-2.458 1.404h-0.351c-0.351 0.351-0.351 0.351-0.702 0.702-1.755 1.053-3.16 2.106-4.564 3.16-4.915 2.809-11.585 4.915-16.851 7.723v-0.351c-1.404 0.702-3.16 0.351-2.809 1.756-1.053 0.702-2.106 1.404-3.159 2.106-0.351 0-0.351 0-0.702 0 0 0-0.351-0.351-0.702-0.351-0.702 0-0.702 0-1.054 0.351-4.564 0.351-10.532 2.457-12.287 3.862-1.755-1.053-9.83 0.702-11.234 1.404 0.702 1.053 2.809 0 4.564 0-1.053 0.351-2.106 0.702-2.458 1.404-0.351 0-0.351 0-0.702 0-0.351-1.053-1.404 0-1.755-0.351h0.351c-0.351-1.404-1.404-2.106-3.16-1.755 0 0.702 0 1.053-0.351 1.755 0.702 0 2.809-1.053 2.809 0-0.351 0-0.351 0.351 0 0.351-0.702 0.702-1.755 0.702-2.458 1.054-1.404 0-3.16 0-4.563 0-0.351-0.351-0.702-0.351-1.405-0.703-0.351 0.351-1.053 0.351-1.404 0.703-2.106 0-4.564 0.351-6.319 0.702 0-0.702 0-1.404-0.702-1.405-1.053 1.404-3.16-0.351-5.617 0.352-2.457-0.702 1.404 1.053 4.915 1.755-0.351 0.351-0.702 0.702-1.756 1.053M116.068 308.271c-4.915-4.564-15.096-6.67-16.851-10.181-2.809-0.351-7.021-5.617-10.532-6.319 1.755 0 0.351-1.053 0-1.755-0.702 0.702-1.404 1.053-2.106 1.053 0-2.809-2.809-4.564-5.266-6.319 1.755 1.053 3.16 1.755 5.266 2.106 0-0.702 0-1.404 0.702-1.404 2.457 2.457 5.266 4.915 8.425 7.372 4.213 3.862 25.979 13.692 29.841 15.447 0 0-0.702 1.404-0.351 1.404 1.755 1.053 3.16-1.053 3.511 1.404-5.617 0.702-7.723-3.16-12.639-2.808M277.909 226.824v0.351 0c-0.351 0 0-0.351 0-0.351M136.079 64.281c-0.351 0.351-0.702 0.351-0.702 0.351 0-0.351 0.351-0.351 0.702-0.351M129.409 66.036c0 0.351 0 0.351 0 0 0 0.351 0 0.351 0 0 0 0.351 0 0 0 0M106.238 73.408v0c0.351-0.351 0.351-0.351 0.703-0.351-0.351 0-0.702 0.351-0.703 0.351M162.409 61.823c-0.702 0-1.053 0-1.404-0.351 0.351 0 0.702 0 1.053 0h0.351c0 0 0 0 0 0.351M168.728 62.525c-0.351-0.351-1.404-0.702-2.457-0.702 0-0.351 0.351-0.702 0.351-0.702 0.351 0 0.702 0 1.053 0 0 0 0.351 0 0.351 0.351 0 0 0 0 0-0.351 0.351 0 0.351 0 0.702 0 0.351 0.702 0.702 1.053 0 1.404M180.313 63.579c-1.755 0.351-2.809-0.351-4.564-1.405 1.053 0 2.457 0.351 3.511 0.702 0.351 0 0.702 0.351 1.053 0.703M305.292 113.43c-0.702 0.351-1.053 0.351-1.755-1.053-5.617-11.936-15.798-29.138-30.543-43.532-14.394-14.745-33.702-26.681-51.255-33.001 1.053 0.351 2.457 1.053 1.755 1.756-15.447-5.968-30.192-9.479-44.234-10.883-37.915-5.968-77.585 2.106-108.128 21.766 0.351 0.702 0.351 1.053-0.702 1.755-11.234 7.021-27.032 19.309-39.671 35.458-12.638 16.149-22.468 36.511-26.681 54.766 0.351-1.053 0.702-2.809 1.405-2.107-9.128 36.16-6.67 67.053 5.968 93.735 0.702-0.702-1.755-4.213 0.351-3.862 1.404 3.862 3.16 8.075 5.266 11.936 2.457 5.617 5.266 12.989 9.128 14.745-9.83-19.309-16.5-41.426-17.203-61.085 1.404 2.809 1.053 8.777 3.16 11.234 0.702-13.34-2.457-31.245 2.106-43.883-1.053 6.67-1.755 15.798-1.053 24.925 0 6.67 3.16 25.277 5.266 27.032-0.351-0.351-0.351-2.106 0-2.106 1.053 2.106-1.404 3.16 0.351 3.511 0-0.702 0.351-0.702 0.702-0.703 3.511 7.723 8.075 19.66 11.585 25.628 4.213 7.723 9.83 14.745 16.149 21.064 0 0.351 0.351 0.351 0.352 0.702 0.702 1.755 3.16 3.862 3.861 5.266 0.351 0.702-0.351 1.755 0 2.458 5.266 9.83 12.989 19.66 22.468 27.383 5.968 7.021 15.447 14.394 27.032 20.713 11.234 5.968 24.223 10.883 36.16 13.691 8.426 2.106 18.606 2.457 24.926 3.862 8.426 1.755 23.17-0.702 30.542-2.107 44.234-6.67 88.117-36.862 110.235-80.393 22.819-43.883 22.117-97.596 2.457-138.671" fill="black" fill-rule="nonzero" stroke="none" stroke-width="1" stroke-linecap="butt" stroke-linejoin="miter" stroke-miterlimit="10" stroke-dasharray="" stroke-dashoffset="0" font-family="none" font-weight="none" font-size="none" text-anchor="none" style="mix-blend-mode: normal"></path></g><g transform="matrix(1,0,0,1,80,162.41149307337096)"><svg viewBox="0 0 160 35.17701385325808" height="35.17701385325808" width="160"><g><svg viewBox="0 0 160 35.17701385325808" height="35.17701385325808" width="160"><g><svg viewBox="0 0 160 35.17701385325808" height="35.17701385325808" width="160"><g><svg viewBox="0 0 160 35.17701385325808" height="35.17701385325808" width="160"><g id="SvgjsG1359"><svg viewBox="0 0 160 35.17701385325808" height="35.17701385325808" width="160" id="SvgjsSvg1358"><g><svg viewBox="0 0 160 35.17701385325808" height="35.17701385325808" width="160"><g transform="matrix(1,0,0,1,0,0)"><svg width="160" viewBox="4.2 -32.64 190.31 41.84" height="35.17701385325808" data-palette-color="url(#0926a24b-3681-4f8b-8b97-789526caa80e)"><path d="M5.96 0.07Q4.2 0.07 4.2-0.88L4.2-0.88 4.2-29.52Q4.2-30.49 5.96-30.49L5.96-30.49 6.3-30.49Q8.03-30.49 8.03-29.52L8.03-29.52 8.03-17.24 23.75-17.24 23.75-29.52Q23.75-30.49 25.49-30.49L25.49-30.49 25.83-30.49Q27.56-30.49 27.56-29.52L27.56-29.52 27.56-0.88Q27.56-0.39 27.15-0.16 26.73 0.07 25.83 0.07L25.83 0.07 25.49 0.07Q24.58 0.07 24.17-0.16 23.75-0.39 23.75-0.88L23.75-0.88 23.75-13.94 8.03-13.94 8.03-0.88Q8.03 0.07 6.3 0.07L6.3 0.07 5.96 0.07ZM44.85 0.24Q39.45 0.24 36.83-2.58 34.2-5.4 34.2-11.21L34.2-11.21Q34.2-16.97 36.77-19.96 39.33-22.95 44.31-22.95L44.31-22.95Q48.75-22.95 51.01-20.07 53.27-17.19 53.27-11.62L53.27-11.62Q53.27-11.38 53.01-10.95 52.76-10.52 52.4-10.19 52.05-9.86 51.8-9.86L51.8-9.86 38.11-9.86Q38.38-6.23 39.98-4.55 41.57-2.88 44.8-2.88L44.8-2.88Q46.6-2.88 47.91-3.32 49.22-3.76 50.44-4.39L50.44-4.39Q50.56-4.44 50.8-4.57 51.05-4.69 51.14-4.69L51.14-4.69Q51.41-4.69 51.77-4.26 52.12-3.83 52.38-3.31 52.63-2.78 52.63-2.54L52.63-2.54Q52.63-2 51.56-1.34 50.49-0.68 48.69-0.22 46.9 0.24 44.85 0.24L44.85 0.24ZM38.11-12.99L49.39-12.99Q49.39-19.82 44.19-19.82L44.19-19.82Q38.6-19.82 38.11-12.99L38.11-12.99ZM60.71 0.07Q59.79 0.07 59.37-0.16 58.95-0.39 58.95-0.88L58.95-0.88 58.95-16.11Q58.95-18.95 58.69-20.2 58.42-21.46 58.42-21.58L58.42-21.58Q58.42-22.12 59.24-22.35 60.05-22.58 60.79-22.58L60.79-22.58Q61.4-22.58 61.69-21.92 61.98-21.26 62.12-20.58 62.25-19.9 62.3-19.7L62.3-19.7Q63.67-21.24 65.46-22.09 67.26-22.95 69.09-22.95L69.09-22.95Q72.41-22.95 74.27-21.08 76.14-19.21 76.14-15.94L76.14-15.94 76.14-0.88Q76.14-0.39 75.73-0.16 75.31 0.07 74.41 0.07L74.41 0.07 74.21 0.07Q73.33 0.07 72.92-0.16 72.5-0.39 72.5-0.88L72.5-0.88 72.5-15.58Q72.5-17.58 71.35-18.69 70.19-19.8 68.09-19.8L68.09-19.8Q66.62-19.8 65.14-18.98 63.67-18.16 62.59-16.75L62.59-16.75 62.59-0.88Q62.59-0.39 62.18-0.16 61.76 0.07 60.88 0.07L60.88 0.07 60.71 0.07ZM90.37 9.2Q86.22 9.2 83.81 7.91 81.39 6.62 81.39 3.83L81.39 3.83Q81.39 1.93 82.49 0.51 83.59-0.9 85.34-1.61L85.34-1.61 85.39-1.71Q84.54-2.37 84.09-3.22 83.64-4.08 83.64-5.25L83.64-5.25Q83.64-8.08 86.08-9.79L86.08-9.79Q84.25-10.67 83.29-12.27 82.34-13.87 82.34-15.87L82.34-15.87Q82.34-17.87 83.33-19.48 84.32-21.09 86.25-22.02 88.18-22.95 90.89-22.95L90.89-22.95Q92.33-22.95 93.45-22.71L93.45-22.71 101.34-22.71Q101.8-22.71 102.01-22.4 102.21-22.09 102.21-21.41L102.21-21.41 102.21-20.87Q102.21-20.19 102.01-19.89 101.8-19.58 101.34-19.58L101.34-19.58Q99.7-19.58 98.31-19.7L98.31-19.7 98.26-19.63Q98.82-18.85 99.1-17.88 99.38-16.92 99.38-15.87L99.38-15.87Q99.38-13.87 98.39-12.26 97.4-10.64 95.49-9.72 93.57-8.79 90.84-8.79L90.84-8.79Q88.79-8.72 87.75-8.03 86.71-7.35 86.71-5.79L86.71-5.79Q86.71-4.64 87.46-4.03 88.2-3.42 89.32-3.17 90.45-2.93 92.45-2.71L92.45-2.71 93.72-2.56Q95.74-2.29 97.11-1.83 98.48-1.37 99.37-0.29 100.26 0.78 100.26 2.66L100.26 2.66Q100.26 5.81 97.75 7.51 95.23 9.2 90.37 9.2L90.37 9.2ZM90.84-11.67Q93.23-11.67 94.65-12.65 96.06-13.62 96.06-15.84L96.06-15.84Q96.06-20.04 90.84-20.04L90.84-20.04Q85.69-20.04 85.69-15.84L85.69-15.84Q85.69-13.62 87.09-12.65 88.49-11.67 90.84-11.67L90.84-11.67ZM90.84 6.25Q93.86 6.25 95.33 5.46 96.79 4.66 96.79 3.05L96.79 3.05Q96.79 2 96.01 1.43 95.23 0.85 94.1 0.62 92.96 0.39 91.11 0.2L91.11 0.2Q89.84 0.05 89.02-0.07 88.2-0.2 87.52-0.42L87.52-0.42Q84.64 0.81 84.64 3.13L84.64 3.13Q84.64 6.25 90.84 6.25L90.84 6.25ZM105.65 0Q105.39 0 105.04-0.79 104.7-1.59 104.7-2.22L104.7-2.22Q104.7-2.47 104.82-2.71L104.82-2.71 117.54-19.58 106.44-19.58Q105.97-19.58 105.78-19.89 105.58-20.19 105.58-20.87L105.58-20.87 105.58-21.41Q105.58-22.09 105.78-22.4 105.97-22.71 106.44-22.71L106.44-22.71 121.67-22.71Q121.96-22.71 122.26-21.9 122.55-21.09 122.55-20.46L122.55-20.46Q122.55-20.24 122.45-20L122.45-20 109.78-3.13 121.72-3.13Q122.18-3.13 122.38-2.82 122.57-2.51 122.57-1.83L122.57-1.83 122.57-1.29Q122.57-0.63 122.38-0.32 122.18 0 121.72 0L121.72 0 105.65 0ZM130.07 0.07Q128.33 0.07 128.33-0.88L128.33-0.88 128.33-31.69Q128.33-32.64 130.07-32.64L130.07-32.64 130.24-32.64Q131.99-32.64 131.99-31.69L131.99-31.69 131.99-19.97Q133.26-21.26 134.97-22.11 136.68-22.95 138.61-22.95L138.61-22.95Q141.34-22.95 143.43-21.41 145.52-19.87 145.52-15.94L145.52-15.94 145.52-0.88Q145.52 0.07 143.79 0.07L143.79 0.07 143.62 0.07Q141.86 0.07 141.86-0.88L141.86-0.88 141.86-15.58Q141.86-17.55 140.73-18.68 139.61-19.8 137.44-19.8L137.44-19.8Q136-19.8 134.79-19.12 133.58-18.43 132.79-17.64 131.99-16.85 131.99-16.75L131.99-16.75 131.99-0.88Q131.99 0.07 130.24 0.07L130.24 0.07 130.07 0.07ZM161.31 0.24Q156.41 0.24 153.83-2.7 151.25-5.64 151.25-11.25L151.25-11.25Q151.25-16.87 153.87-19.91 156.48-22.95 161.31-22.95L161.31-22.95Q166.1-22.95 168.64-19.93 171.18-16.92 171.18-11.25L171.18-11.25Q171.18-5.62 168.67-2.69 166.17 0.24 161.31 0.24L161.31 0.24ZM161.19-2.88Q164.36-2.88 165.88-4.94 167.39-7.01 167.39-11.33L167.39-11.33Q167.39-15.67 165.88-17.75 164.36-19.82 161.19-19.82L161.19-19.82Q158.04-19.82 156.55-17.76 155.06-15.7 155.06-11.33L155.06-11.33Q155.06-6.98 156.54-4.93 158.02-2.88 161.19-2.88L161.19-2.88ZM183.89 0.24Q180.57 0.24 178.69-1.62 176.81-3.49 176.81-6.79L176.81-6.79 176.81-21.83Q176.81-22.78 178.57-22.78L178.57-22.78 178.74-22.78Q180.48-22.78 180.48-21.83L180.48-21.83 180.48-7.13Q180.48-5.13 181.64-4.02 182.8-2.91 184.89-2.91L184.89-2.91Q186.36-2.91 187.82-3.72 189.29-4.54 190.36-5.96L190.36-5.96 190.36-21.83Q190.36-22.78 192.1-22.78L192.1-22.78 192.27-22.78Q194.03-22.78 194.03-21.83L194.03-21.83 194.03-6.42Q194.03-3.59 194.27-2.33 194.51-1.07 194.51-0.95L194.51-0.95Q194.51-0.42 193.71-0.18 192.9 0.05 192.19 0.05L192.19 0.05Q191.58 0.05 191.29-0.65 191-1.34 190.86-2.08 190.73-2.81 190.68-3L190.68-3Q189.31-1.46 187.52-0.61 185.72 0.24 183.89 0.24L183.89 0.24Z" opacity="1" transform="matrix(1,0,0,1,0,0)" fill="black" class="wordmark-text-0" id="SvgjsPath1357"></path></svg></g></svg></g></svg></g></svg></g></svg></g></svg></g></svg></g></svg></g><defs><mask></mask></defs></svg><rect width="320" height="360" fill="black" stroke="none" visibility="hidden"></rect></g></mask></svg><rect width="320" height="360" fill="black" stroke="none" visibility="hidden"></rect></g></mask><linearGradient x1="0" x2="1" y1="0.578" y2="0.595" id="ff3a88b0-6834-4545-b4ac-1ba09ac1b388"><stop stop-color="#6ee2f5" offset="0"></stop><stop stop-color="#6454f0" offset="1"></stop></linearGradient></svg><rect width="320" height="360" fill="none" stroke="none" visibility="hidden"></rect></g></svg></g></svg>